<svg width="64" height="64" viewBox="0 0 64 64" fill="none" xmlns="http://www.w3.org/2000/svg">
  <path d="M13 20C13 14.477 17.477 10 23 10H27C28.105 10 29 10.895 29 12V52C29 53.105 28.105 54 27 54H23C17.477 54 13 49.523 13 44V20Z" fill="#F8D48A"/>
  <path d="M23 18C23 12.477 27.477 8 33 8H36C37.105 8 38 8.895 38 10V54C38 55.105 37.105 56 36 56H33C27.477 56 23 51.523 23 46V18Z" fill="#F59E0B"/>
  <path d="M34 18C34 12.477 38.477 8 44 8H47C48.105 8 49 8.895 49 10V54C49 55.105 48.105 56 47 56H44C38.477 56 34 51.523 34 46V18Z" fill="#111827"/>
  <path d="M45 22H52" stroke="#111827" stroke-width="3" stroke-linecap="round"/>
  <path d="M45 30H57" stroke="#111827" stroke-width="3" stroke-linecap="round"/>
  <path d="M45 38H54" stroke="#111827" stroke-width="3" stroke-linecap="round"/>
  <path d="M45 46H50" stroke="#111827" stroke-width="3" stroke-linecap="round"/>
  <circle cx="58" cy="22" r="2" fill="#06B6D4"/>
  <circle cx="59" cy="38" r="2" fill="#06B6D4"/>
  <circle cx="55" cy="50" r="3" fill="#F59E0B"/>
</svg>
